# xmcd
# Track frame offsets:
# 150
# 13351
# 27453
# 40730
# 52421
# 66463
# 81481
# 97038
# 110635
# 123542
# 135160
# 148839
# 161817
# 173832
# 187280
#
# Disc length: 2666 seconds
# Revision: 0
# Processed by: cddbd v1.5.1PL0 Copyright (c) Steve Scherf et al.
# Submitted via: VisiTrax 2.9.10.228 - For more info visit www.synapsa.com
#
DISCID=ee0a680f
DTITLE=Various Artist - CB60015
DYEAR=1900
DGENRE=Karaoke
TTITLE0=Williams, Hank - Cold Cold Heart
TTITLE1=Williams, Hank - Hey Good Lookin'
TTITLE2=Williams, Hank - Honky Tonkin'
TTITLE3=Williams, Hank - I Can't Help It If I'm Still In Love With You
TTITLE4=Williams, Hank - I'm So Lonesome I Could Cry
TTITLE5=Williams, Hank - Jambalaya
TTITLE6=Williams, Hank - Kaw-Liga
TTITLE7=Williams, Hank - Lovesick Blues
TTITLE8=Williams, Hank - Take These Chains From My Heart
TTITLE9=Williams, Hank - Why Don't You Love Me
TTITLE10=Williams, Hank - Your Cheatin' Heart
TTITLE11=Williams, Hank - Long Gone Lonesome Blues
TTITLE12=Williams, Hank - Moanin' The Blues
TTITLE13=Williams, Hank - Move It On Over
TTITLE14=Williams, Hank - My Bucket's Got A Hole In It
EXTD=
EXTT0=
EXTT1=
EXTT2=
EXTT3=
EXTT4=
EXTT5=
EXTT6=
EXTT7=
EXTT8=
EXTT9=
EXTT10=
EXTT11=
EXTT12=
EXTT13=
EXTT14=
PLAYORDER=
